<svg xmlns="http://www.w3.org/2000/svg" viewBox="0 0 256 256" width="256" height="256">
<path d="M 128.000 10.000 A 118 118 0 0 1 230.191 187.000 L 195.550 167.000 A 78 78 0 0 0 128.000 50.000 Z" fill="#B8DED8"/>
<path d="M 230.191 187.000 A 118 118 0 0 1 25.809 187.000 L 60.450 167.000 A 78 78 0 0 0 195.550 167.000 Z" fill="#7EC9BF"/>
<path d="M 25.809 187.000 A 118 118 0 0 1 128.000 10.000 L 128.000 50.000 A 78 78 0 0 0 60.450 167.000 Z" fill="#14A090"/>
<path d="M 128.000 50.000 A 78 78 0 0 1 195.550 167.000 L 160.909 147.000 A 38 38 0 0 0 128.000 90.000 Z" fill="#14A090"/>
<path d="M 195.550 167.000 A 78 78 0 0 1 60.450 167.000 L 95.091 147.000 A 38 38 0 0 0 160.909 147.000 Z" fill="#0B7F74"/>
<path d="M 60.450 167.000 A 78 78 0 0 1 128.000 50.000 L 128.000 90.000 A 38 38 0 0 0 95.091 147.000 Z" fill="#08655C"/>
<path d="M 128 128 L 128.000 90.000 A 38 38 0 0 1 160.909 147.000 Z" fill="#E5671A"/>
<path d="M 128 128 L 160.909 147.000 A 38 38 0 0 1 95.091 147.000 Z" fill="#D45510"/>
<path d="M 128 128 L 95.091 147.000 A 38 38 0 0 1 128.000 90.000 Z" fill="#C44A0C"/>
</svg>
